<mxfile host="app.diagrams.net" modified="2024-07-08T03:52:09.290Z" agent="Mozilla/5.0 (Windows NT 10.0; Win64; x64) AppleWebKit/537.36 (KHTML, like Gecko) Chrome/126.0.0.0 Safari/537.36" version="24.6.4" etag="TLocm9XQA8Cj08MbutZC" type="github">
  <diagram name="第 1 页" id="Ow4xsiP06NNahBEJit_-">
    <mxGraphModel>
      <root>
        <mxCell id="0" />
        <mxCell id="1" parent="0" />
      </root>
    </mxGraphModel>
  </diagram>
</mxfile>
